<svg id="a" xmlns="http://www.w3.org/2000/svg" viewBox="0 0 142.61 32.85"><defs><linearGradient id="c" x1="108.6" y1="16.2" x2="142.61" y2="16.2" gradientUnits="userSpaceOnUse"><stop offset="0" stop-color="#1a3a56"/><stop offset="1" stop-color="#215379"/></linearGradient><style>.e{fill:#fff}</style></defs><path d="M24.61 32.5h-5.3c-1 0-1.73-.39-2.18-1.18L10.5 21.23c-.25-.38-.52-.65-.82-.81-.3-.16-.74-.24-1.32-.24H5.85v12.31H0V.98h9.61c2.14 0 3.97.22 5.5.66 1.53.44 2.79 1.06 3.77 1.86s1.7 1.75 2.17 2.87c.47 1.11.7 2.34.7 3.67 0 1.06-.16 2.06-.47 3.01-.31.94-.76 1.8-1.35 2.57-.59.77-1.32 1.45-2.18 2.03-.86.58-1.85 1.04-2.95 1.37.38.22.73.48 1.05.77.32.3.61.65.87 1.06l7.89 11.64zM9.52 15.98c1.1 0 2.07-.14 2.89-.41.82-.28 1.5-.66 2.03-1.14s.93-1.06 1.19-1.73c.26-.67.39-1.4.39-2.2 0-1.6-.53-2.83-1.58-3.68-1.05-.86-2.66-1.29-4.83-1.29H5.86v10.45h3.66zM29.86 21.99c.09 1.15.29 2.14.61 2.98.32.84.74 1.53 1.26 2.07.52.54 1.14.95 1.86 1.22s1.52.4 2.39.4 1.62-.1 2.26-.3c.63-.2 1.18-.43 1.66-.68.47-.25.89-.47 1.24-.68s.7-.31 1.04-.31c.45 0 .78.17 1 .5l1.55 1.96c-.6.7-1.26 1.28-2 1.75s-1.52.85-2.32 1.13c-.81.28-1.63.48-2.46.6s-1.65.17-2.43.17c-1.56 0-3-.26-4.34-.77a9.766 9.766 0 01-3.49-2.29c-.99-1.01-1.77-2.26-2.33-3.75-.57-1.49-.85-3.21-.85-5.18 0-1.53.25-2.96.74-4.3.49-1.34 1.2-2.51 2.12-3.51.92-1 2.05-1.78 3.38-2.37 1.33-.58 2.83-.87 4.5-.87 1.41 0 2.71.23 3.9.68 1.19.45 2.22 1.11 3.07 1.97.86.86 1.53 1.93 2.02 3.18s.73 2.69.73 4.3c0 .81-.09 1.36-.26 1.65-.17.28-.51.43-1 .43H29.87zm10.27-3.25c0-.7-.1-1.35-.29-1.97s-.49-1.16-.88-1.62c-.39-.46-.89-.83-1.49-1.1-.6-.27-1.3-.4-2.1-.4-1.56 0-2.78.44-3.67 1.33-.89.89-1.46 2.14-1.71 3.77h10.16zM62.64 14.5c-.15.23-.3.4-.46.49-.16.09-.36.14-.61.14-.26 0-.54-.07-.84-.22-.3-.15-.64-.31-1.04-.49a9 9 0 00-1.34-.49c-.5-.15-1.09-.22-1.78-.22-1.06 0-1.89.23-2.5.68-.6.45-.9 1.04-.9 1.77 0 .48.16.88.47 1.21s.73.61 1.24.86c.52.25 1.1.47 1.75.67.65.2 1.32.41 1.99.64.68.23 1.34.5 1.99.8.65.3 1.24.68 1.75 1.13.52.46.93 1.01 1.24 1.65.31.64.47 1.41.47 2.31 0 1.08-.19 2.07-.58 2.98-.39.91-.96 1.69-1.71 2.35-.76.66-1.69 1.18-2.8 1.55-1.11.37-2.39.56-3.85.56-.77 0-1.52-.07-2.26-.21-.73-.14-1.44-.33-2.11-.58-.68-.25-1.3-.54-1.87-.87-.57-.33-1.08-.7-1.52-1.09l1.24-2.05c.16-.25.35-.44.57-.57.22-.13.49-.2.83-.2s.65.09.95.28.64.39 1.04.61c.39.22.85.42 1.38.61.53.19 1.2.28 2.02.28.64 0 1.19-.08 1.65-.23.46-.15.84-.35 1.13-.6.3-.25.52-.53.65-.86s.21-.66.21-1.01c0-.52-.16-.95-.47-1.29-.31-.33-.73-.62-1.24-.87-.52-.25-1.1-.47-1.77-.66-.66-.2-1.34-.41-2.03-.64-.69-.23-1.37-.5-2.03-.82s-1.25-.71-1.77-1.19-.93-1.07-1.24-1.77c-.31-.7-.47-1.54-.47-2.53 0-.92.18-1.79.54-2.62.36-.83.9-1.55 1.6-2.17.71-.62 1.58-1.11 2.64-1.48 1.05-.37 2.27-.56 3.65-.56 1.54 0 2.94.25 4.21.76 1.26.51 2.32 1.18 3.16 2.01l-1.22 1.94zM74.33 5.65v8.74h11.03v4.51H74.33v8.92h13.99v4.69H68.44V.98h19.88v4.67H74.33zM98.02.11V32.5h-5.38V.11h5.38z"/><g id="b"><rect x="108.6" width="34.01" height="32.39" rx="2.85" ry="2.85" fill="url(#c)"/></g><g><path class="e" d="M119.62 8.17c0 .31-.06.6-.19.87a2.397 2.397 0 01-1.23 1.2c-.28.12-.58.18-.9.18s-.6-.06-.88-.18a2.14 2.14 0 01-.72-.49c-.2-.2-.37-.44-.49-.71-.12-.27-.18-.56-.18-.87a2.296 2.296 0 011.39-2.12 2.296 2.296 0 011.78 0c.28.12.53.28.73.49.21.2.38.45.5.73.13.28.19.58.19.9zm-.49 4.34v14.91h-3.6v-14.9h3.6zM135.73 5.83v21.6h-2.19c-.48 0-.78-.22-.9-.65l-.31-1.44c-.6.69-1.29 1.24-2.07 1.67s-1.69.64-2.72.64c-.81 0-1.56-.17-2.24-.51s-1.26-.83-1.75-1.48c-.49-.64-.87-1.44-1.13-2.39-.27-.95-.4-2.03-.4-3.25 0-1.1.15-2.13.45-3.08.3-.95.73-1.77 1.29-2.47.56-.7 1.23-1.24 2.02-1.63.78-.39 1.67-.59 2.64-.59.83 0 1.55.13 2.14.39.59.26 1.12.62 1.58 1.06V5.83h3.59zm-3.59 10.49c-.41-.49-.85-.84-1.33-1.05s-1-.31-1.55-.31-1.03.1-1.47.31c-.44.2-.81.51-1.12.92s-.55.94-.71 1.57c-.17.63-.25 1.38-.25 2.25s.07 1.61.21 2.22c.14.61.34 1.1.6 1.48.26.38.58.66.96.83.38.17.8.25 1.26.25.75 0 1.38-.16 1.9-.47.52-.31 1.02-.75 1.48-1.32v-6.68z"/></g></svg>